{"title":"Rinako - Dramatic Story Of Rinako. Debut 2014 (Uncesored) Web-DL","uid":10824570,"size":898437793,"categoryP":"porn","categoryS":"movie_clips","magnet":"?xt=urn:btih:8a47740b83b836ff8ceae3252d20cab81e658afb&amp;dn=Rinako+-+Dramatic+Story+Of+Rinako.+Debut+2014+%28Uncesored%29+Web-DL&amp;tr=udp%3A%2F%2Ftracker.openbittorrent.com%3A80&amp;tr=udp%3A%2F%2Fopen.demonii.com%3A1337&amp;tr=udp%3A%2F%2Ftracker.coppersurfer.tk%3A6969&amp;tr=udp%3A%2F%2Fexodus.desync.com%3A6969","seeders":0,"leechers":1,"uploader":"ThousandPeers","files":-1,"time":1408569428,"description":"Format                                   : Windows Media\nFile size                                : 855 MiB\nDuration                                 : 1h 1mn\nOverall bit rate mode                    : Constant\nOverall bit rate                         : 1 955 Kbps\nMaximum Overall bit rate                 : 2 067 Kbps\nEncoded date                             : UTC 2014-04-30 11:02:43.800\n\nVideo\nID                                       : 1\nFormat                                   : VC-1\nFormat profile                           : MP@ML\nCodec ID                                 : WMV3\nCodec ID/Info                            : Windows Media Video 9\nCodec ID/Hint                            : WMV3\nDescription of the codec                 : Windows Media Video 9\nDuration                                 : 1h 1mn\nBit rate mode                            : Constant\nBit rate                                 : 1 920 Kbps\nWidth                                    : 704 pixels\nHeight                                   : 396 pixels\nDisplay aspect ratio                     : 16:9\nFrame rate                               : 29.970 fps\nBit depth                                : 8 bits\nScan type                                : Progressive\nCompression mode                         : Lossy\nBits/(Pixel*Frame)                       : 0.230\nStream size                              : 840 MiB (98%)\nLanguage                                 : Russian\n\nAudio\nID                                       : 2\nFormat                                   : WMA\nFormat version                           : Version 2\nCodec ID                                 : 161\nCodec ID/Info                            : Windows Media Audio\nDescription of the codec                 : Windows Media Audio 9.2 - 128 kbps, 48 kHz, stereo 1-pass CBR\nDuration                                 : 1h 1mn\nBit rate mode                            : Constant\nBit rate                                 : 128 Kbps\nChannel(s)                               : 2 channels\nSampling rate                            : 48.0 KHz\nBit depth                                : 16 bits\nStream size                              : 56.0 MiB (7%)\nLanguage                                 : Russian\n","torrent":{"xt":"urn:btih:8a47740b83b836ff8ceae3252d20cab81e658afb","amp;dn":"Rinako+-+Dramatic+Story+Of+Rinako.+Debut+2014+%28Uncesored%29+Web-DL","amp;tr":["udp%3A%2F%2Ftracker.openbittorrent.com%3A80","udp%3A%2F%2Fopen.demonii.com%3A1337","udp%3A%2F%2Ftracker.coppersurfer.tk%3A6969","udp%3A%2F%2Fexodus.desync.com%3A6969"],"infoHash":"8a47740b83b836ff8ceae3252d20cab81e658afb","infoHashBuffer":{"type":"Buffer","data":[138,71,116,11,131,184,54,255,140,234,227,37,45,32,202,184,30,101,138,251]},"announce":[],"urlList":[]}}